<?xml version="1.0" encoding="UTF-8"?>
<svg version="1.1" xmlns="http://www.w3.org/2000/svg" width="535" height="92">
<path d="M0 0 C176.55 0 353.1 0 535 0 C535 30.36 535 60.72 535 92 C358.45 92 181.9 92 0 92 C0 61.64 0 31.28 0 0 Z " fill="#FDFDFE" transform="translate(0,0)"/>
<path d="M0 0 C4.62 0 9.24 0 14 0 C14.33 1.32 14.66 2.64 15 4 C15.7425 3.34 16.485 2.68 17.25 2 C22.00143706 -1.16762471 27.53150227 -0.76619062 33 0 C36.5 1.875 36.5 1.875 39 4 C40.3191582 4.69429379 41.64649406 5.37530495 43 6 C43.94875 5.195625 44.8975 4.39125 45.875 3.5625 C50.4796764 -0.34146477 53.96306836 -0.33860234 59.94921875 -0.28125 C65.51406415 0.23177032 68.57008829 2.45720052 72.375 6.5625 C75.21309466 10.81964199 75.13370044 14.57886932 75.09765625 19.51171875 C75.0962413 20.23994339 75.09482635 20.96816803 75.09336853 21.71846008 C75.08777659 24.04151539 75.07522562 26.36447388 75.0625 28.6875 C75.05748396 30.26367048 75.05292123 31.83984248 75.04882812 33.41601562 C75.0378098 37.27738098 75.02055074 41.13867408 75 45 C70.38 45 65.76 45 61 45 C60.97421875 42.94136719 60.9484375 40.88273437 60.921875 38.76171875 C60.8801527 36.76600194 60.83829181 34.77028533 60.79248047 32.7746582 C60.76427203 31.38871604 60.74305667 30.00261304 60.72900391 28.61645508 C60.70757579 26.62292596 60.65882986 24.62974954 60.609375 22.63671875 C60.58842773 21.43748779 60.56748047 20.23825684 60.54589844 19.00268555 C60.27407314 15.93706688 60.27407314 15.93706688 58.18457031 14.10864258 C54.98715738 12.48599482 52.52505287 12.61544878 49 13 C46.89641619 14.54262813 46.15945841 15.68108317 45 18 C44.84588894 20.0307477 44.75017547 22.06606421 44.68359375 24.1015625 C44.62075195 25.91914062 44.62075195 25.91914062 44.55664062 27.7734375 C44.51732422 29.04445313 44.47800781 30.31546875 44.4375 31.625 C44.37272461 33.543125 44.37272461 33.543125 44.30664062 35.5 C44.2003019 38.66653082 44.0996233 41.83325079 44 45 C39.71 45 35.42 45 31 45 C30.97421875 43.02515625 30.9484375 41.0503125 30.921875 39.015625 C30.86560187 36.42706099 30.80825437 33.83852018 30.75 31.25 C30.73582031 29.94804688 30.72164062 28.64609375 30.70703125 27.3046875 C30.67480469 26.05429687 30.64257812 24.80390625 30.609375 23.515625 C30.58842773 22.36352539 30.56748047 21.21142578 30.54589844 20.02441406 C29.89455416 16.41580366 28.85957508 15.22262871 26 13 C23.09215119 12.29117697 21.057461 12.66028211 18 13 C16.15836512 14.03831064 16.15836512 14.03831064 15 16 C14.49231957 19.0968286 14.49231957 19.0968286 14.48828125 22.63671875 C14.45283203 23.93544922 14.41738281 25.23417969 14.38085938 26.57226562 C14.3577595 27.94400517 14.3349771 29.3157501 14.3125 30.6875 C14.27932458 32.07099607 14.24483469 33.45446129 14.20898438 34.83789062 C14.1263727 38.22496933 14.06151428 41.61247246 14 45 C9.38 45 4.76 45 0 45 C0 30.15 0 15.3 0 0 Z " fill="#2D53EA" transform="translate(65,22)"/>
<path d="M0 0 C4.29 0 8.58 0 13 0 C13 19.47 13 38.94 13 59 C8.71 59 4.42 59 0 59 C-0.33 57.35 -0.66 55.7 -1 54 C-1.556875 54.61875 -2.11375 55.2375 -2.6875 55.875 C-5.79807997 58.73337078 -8.43929442 59.93184692 -12.68359375 60.1171875 C-19.8914135 59.48330832 -24.09567816 58.07028309 -29.1875 52.6875 C-34.16848689 45.30189874 -35.11555916 38.87185256 -34 30 C-31.91274545 23.40820037 -28.71080243 18.84858425 -23 15 C-17.2457001 13.08190003 -11.07601312 13.19873178 -5.4375 15.375 C-3 17 -3 17 -1 19 C-0.67 12.73 -0.34 6.46 0 0 Z " fill="#2D53EA" transform="translate(377,8)"/>
<path d="M0 0 C2.4375 1.625 2.4375 1.625 4.4375 3.625 C4.7675 1.975 5.0975 0.325 5.4375 -1.375 C9.7275 -1.375 14.0175 -1.375 18.4375 -1.375 C18.4375 13.475 18.4375 28.325 18.4375 43.625 C14.1475 43.625 9.8575 43.625 5.4375 43.625 C5.1075 41.975 4.7775 40.325 4.4375 38.625 C3.880625 39.24375 3.32375 39.8625 2.75 40.5 C-1.2575141 44.18258053 -4.98385489 45.10237419 -10.4453125 44.9375 C-15.81462138 44.14498208 -19.59555535 41.59194465 -23.375 37.8125 C-28.60692834 30.18883299 -29.72441186 23.86548768 -28.5625 14.625 C-26.47524545 8.03320037 -23.27330243 3.47358425 -17.5625 -0.375 C-11.8082001 -2.29309997 -5.63851312 -2.17626822 0 0 Z " fill="#2E54EA" transform="translate(476.5625,23.375)"/>
<path d="M0 0 C2.4375 1.625 2.4375 1.625 4.4375 3.625 C4.7675 1.975 5.0975 0.325 5.4375 -1.375 C9.7275 -1.375 14.0175 -1.375 18.4375 -1.375 C18.4375 13.475 18.4375 28.325 18.4375 43.625 C14.1475 43.625 9.8575 43.625 5.4375 43.625 C5.1075 41.975 4.7775 40.325 4.4375 38.625 C3.880625 39.24375 3.32375 39.8625 2.75 40.5 C-1.2575141 44.18258053 -4.98385489 45.10237419 -10.4453125 44.9375 C-15.81462138 44.14498208 -19.59555535 41.59194465 -23.375 37.8125 C-28.60692834 30.18883299 -29.72441186 23.86548768 -28.5625 14.625 C-26.47524545 8.03320037 -23.27330243 3.47358425 -17.5625 -0.375 C-11.8082001 -2.29309997 -5.63851312 -2.17626822 0 0 Z " fill="#2E54EA" transform="translate(293.5625,23.375)"/>
<path d="M0 0 C5.28 0 10.56 0 16 0 C18.97 8.25 21.94 16.5 25 25 C26.84175969 22.23736046 27.83508872 19.99241374 28.9453125 16.89453125 C29.29980469 15.91162109 29.65429688 14.92871094 30.01953125 13.91601562 C30.38433594 12.89185547 30.74914062 11.86769531 31.125 10.8125 C31.49753906 9.77673828 31.87007813 8.74097656 32.25390625 7.67382812 C33.17288515 5.11718169 34.08691631 2.55875778 35 0 C39.95 0 44.9 0 50 0 C49.17506987 4.94958075 48.39968024 7.69246245 46.28125 12.03125 C43.08300994 18.75595045 40.26072831 25.58624525 37.5 32.5 C34.30262786 40.50725183 30.96522181 48.40294661 27.30224609 56.2097168 C25.79253277 59.44453373 24.37827259 62.70745992 23 66 C18.05 66 13.1 66 8 66 C9.2990128 61.74212472 10.49804173 57.880146 12.7109375 54 C16.19499017 47.83179806 16.19499017 47.83179806 16.66015625 40.93359375 C15.63799658 37.96896696 14.45971851 35.15345446 13.10400391 32.32666016 C11.22843969 28.37395627 9.50355557 24.35453856 7.74975586 20.34667969 C6.7608383 18.09871537 5.76058061 15.85570094 4.74829102 13.61816406 C4.27963623 12.57756836 3.81098145 11.53697266 3.328125 10.46484375 C2.9043457 9.532771 2.48056641 8.60069824 2.04394531 7.64038086 C1 5 1 5 0 0 Z " fill="#2F54EA" transform="translate(395,22)"/>
<path d="M0 0 C5.28 0 10.56 0 16 0 C18.97 8.25 21.94 16.5 25 25 C26.84175969 22.23736046 27.83508872 19.99241374 28.9453125 16.89453125 C29.29980469 15.91162109 29.65429688 14.92871094 30.01953125 13.91601562 C30.38433594 12.89185547 30.74914062 11.86769531 31.125 10.8125 C31.49753906 9.77673828 31.87007812 8.74097656 32.25390625 7.67382812 C33.17288515 5.11718169 34.08691631 2.55875778 35 0 C39.95 0 44.9 0 50 0 C49.17506987 4.94958075 48.39968024 7.69246245 46.28125 12.03125 C43.08300994 18.75595045 40.26072831 25.58624525 37.5 32.5 C34.30262786 40.50725183 30.96522181 48.40294661 27.30224609 56.2097168 C25.79253277 59.44453373 24.37827259 62.70745992 23 66 C18.05 66 13.1 66 8 66 C9.2990128 61.74212472 10.49804173 57.880146 12.7109375 54 C16.19499017 47.83179806 16.19499017 47.83179806 16.66015625 40.93359375 C15.63799658 37.96896696 14.45971851 35.15345446 13.10400391 32.32666016 C11.22843969 28.37395627 9.50355557 24.35453856 7.74975586 20.34667969 C6.7608383 18.09871537 5.76058061 15.85570094 4.74829102 13.61816406 C4.27963623 12.57756836 3.81098145 11.53697266 3.328125 10.46484375 C2.9043457 9.532771 2.48056641 8.60069824 2.04394531 7.64038086 C1 5 1 5 0 0 Z " fill="#2F54EA" transform="translate(145,22)"/>
<path d="M0 0 C4.95 0 9.9 0 15 0 C16.15231002 3.68558688 17.29702439 7.37325111 18.4375 11.0625 C18.92573242 12.62000977 18.92573242 12.62000977 19.42382812 14.20898438 C21.04649589 19.47847246 22.44696315 24.50857778 23 30 C23.66 30 24.32 30 25 30 C25.10812012 29.4013916 25.21624023 28.8027832 25.32763672 28.18603516 C26.54025775 21.77540299 28.19630341 15.60404402 30.125 9.375 C30.40214844 8.46621094 30.67929688 7.55742187 30.96484375 6.62109375 C31.63896757 4.41275709 32.31886719 2.2061849 33 0 C37.95 0 42.9 0 48 0 C46.48273195 7.58634026 44.19845852 14.65607703 41.25 21.796875 C38.26639052 29.4423743 35.68064169 37.24421085 33 45 C27.06 45 21.12 45 15 45 C14.56429687 43.75347656 14.12859375 42.50695312 13.6796875 41.22265625 C11.78862135 35.8143459 9.89493432 30.40695616 8 25 C7.70689941 24.16339844 7.41379883 23.32679687 7.11181641 22.46484375 C6.3049826 20.16361343 5.4965362 17.86295682 4.6875 15.5625 C4.44563965 14.8722876 4.2037793 14.1820752 3.95458984 13.47094727 C2.97441681 10.68826435 1.97321819 7.93613568 0.83203125 5.21484375 C0 3 0 3 0 0 Z " fill="#2F54EA" transform="translate(213,22)"/>
<path d="M0 0 C3.96 0 7.92 0 12 0 C12 4.62 12 9.24 12 14 C16.62 14 21.24 14 26 14 C26 17.96 26 21.92 26 26 C21.38 26 16.76 26 12 26 C12 30.62 12 35.24 12 40 C8.04 40 4.08 40 0 40 C0 35.38 0 30.76 0 26 C-4.62 26 -9.24 26 -14 26 C-14 22.04 -14 18.08 -14 14 C-9.38 14 -4.76 14 0 14 C0 9.38 0 4.76 0 0 Z " fill="#203864" transform="translate(29,19)"/>
<path d="M0 0 C4.62 0 9.24 0 14 0 C14 14.85 14 29.7 14 45 C9.38 45 4.76 45 0 45 C0 30.15 0 15.3 0 0 Z " fill="#2D53EA" transform="translate(322,22)"/>
<path d="M0 0 C4.35612356 2.29686515 4.35612356 2.29686515 6 5 C7.12346522 10.35250929 6.92369938 14.52785411 4 19.1875 C0.1456129 21.5161922 -2.61298501 22.05252981 -7 21 C-10 19.1875 -10 19.1875 -12 16 C-12.98699035 10.60391344 -12.95104347 6.46979445 -9.9375 1.8125 C-6.18993228 -0.49982902 -4.33570018 -0.76064915 0 0 Z " fill="#FCFDFE" transform="translate(475,34)"/>
<path d="M0 0 C4.35612356 2.29686515 4.35612356 2.29686515 6 5 C7.12346522 10.35250929 6.92369938 14.52785411 4 19.1875 C0.1456129 21.5161922 -2.61298501 22.05252981 -7 21 C-10 19.1875 -10 19.1875 -12 16 C-12.98699035 10.60391344 -12.95104347 6.46979445 -9.9375 1.8125 C-6.18993228 -0.49982902 -4.33570018 -0.76064915 0 0 Z " fill="#FCFDFE" transform="translate(370,34)"/>
<path d="M0 0 C4.35612356 2.29686515 4.35612356 2.29686515 6 5 C7.12346522 10.35250929 6.92369938 14.52785411 4 19.1875 C0.1456129 21.5161922 -2.61298501 22.05252981 -7 21 C-10 19.1875 -10 19.1875 -12 16 C-12.98699035 10.60391344 -12.95104347 6.46979445 -9.9375 1.8125 C-6.18993228 -0.49982902 -4.33570018 -0.76064915 0 0 Z " fill="#FCFDFE" transform="translate(292,34)"/>
<path d="M0 0 C2.5 1.625 2.5 1.625 4 4 C4.5625 6.9375 4.5625 6.9375 4 10 C1.53959272 13.32878632 0.10389613 14.79301948 -4 15.5625 C-7.80484394 14.84909176 -9.4511805 13.9236459 -12 11 C-12.63210717 7.06688873 -12.60020266 4.97532932 -10.5 1.5625 C-6.98305319 -0.63559176 -4.04133533 -0.81157964 0 0 Z " fill="#3256EA" transform="translate(333,3)"/>
<path d="M0 0 C2.5 1 2.5 1 4 3 C4.45364856 6.1755399 4.68938436 7.98847886 4 11 C1.9375 13.5625 1.9375 13.5625 -1 15 C-4.95524221 15 -7.17910394 14.56831266 -10.4375 12.3125 C-12.49849691 9.26222457 -12.60226822 7.61360931 -12 4 C-8.99696132 -0.75481125 -5.15527121 -0.83456235 0 0 Z " fill="#29406A" transform="translate(515,53)"/>
</svg>
