<?xml version="1.0" encoding="UTF-8"?>
<svg version="1.1" xmlns="http://www.w3.org/2000/svg" width="65" height="64">
<path d="M0 0 C0.84137512 -0.01283524 1.68275024 -0.02567047 2.54962158 -0.03889465 C3.46104919 -0.04628159 4.37247681 -0.05366852 5.31152344 -0.0612793 C6.24889343 -0.06935104 7.18626343 -0.07742279 8.15203857 -0.08573914 C10.13926338 -0.09958491 12.12651203 -0.11030485 14.11376953 -0.11816406 C17.14499389 -0.13535117 20.17512033 -0.17922969 23.20605469 -0.22338867 C25.13703625 -0.23351788 27.06802709 -0.24203327 28.99902344 -0.2487793 C29.90235413 -0.26628738 30.80568481 -0.28379547 31.73638916 -0.30183411 C37.31306821 -0.28272958 40.5065994 0.43936287 44.92089844 4.17700195 C49.7459698 9.65410999 50.09979119 13.19715808 50.15917969 20.34887695 C50.16725143 21.2640509 50.17532318 22.17922485 50.18363953 23.12213135 C50.19748473 25.06227725 50.20820493 27.00244757 50.21606445 28.94262695 C50.23324994 31.90143443 50.27712851 34.85911662 50.32128906 37.81762695 C50.33141845 39.70303541 50.33993378 41.58845336 50.34667969 43.47387695 C50.36418777 44.35533386 50.38169586 45.23679077 50.3997345 46.1449585 C50.38037022 51.66494352 49.60556239 54.80170025 45.92089844 59.17700195 C42.1712754 62.4802413 39.8258769 64.28782168 34.84179688 64.35400391 C33.57973419 64.37325676 33.57973419 64.37325676 32.29217529 64.39289856 C31.38074768 64.40028549 30.46932007 64.40767242 29.53027344 64.4152832 C28.59290344 64.42335495 27.65553345 64.4314267 26.6897583 64.43974304 C24.70253349 64.45358882 22.71528485 64.46430876 20.72802734 64.47216797 C17.69680299 64.48935507 14.66667654 64.5332336 11.63574219 64.57739258 C9.70476062 64.58752179 7.77376978 64.59603717 5.84277344 64.6027832 C4.93944275 64.62029129 4.03611206 64.63779938 3.10540771 64.65583801 C-2.47127134 64.63673349 -5.66480252 63.91464104 -10.07910156 60.17700195 C-14.90417292 54.69989392 -15.25799432 51.15684583 -15.31738281 44.00512695 C-15.32545456 43.089953 -15.33352631 42.17477905 -15.34184265 41.23187256 C-15.35568786 39.29172665 -15.36640806 37.35155634 -15.37426758 35.41137695 C-15.39145306 32.45256947 -15.43533163 29.49488728 -15.47949219 26.53637695 C-15.48962157 24.6509685 -15.49813691 22.76555055 -15.50488281 20.88012695 C-15.5223909 19.99867004 -15.53989899 19.11721313 -15.55793762 18.20904541 C-15.53857335 12.68906039 -14.76376551 9.55230366 -11.07910156 5.17700195 C-7.32947852 1.87376261 -4.98408002 0.06618222 0 0 Z " fill="#FBFCFC" transform="translate(15.0791015625,-0.177001953125)"/>
<path d="M0 0 C6.6 0 13.2 0 20 0 C20 7.26 20 14.52 20 22 C26.93 22 33.86 22 41 22 C41 27.94 41 33.88 41 40 C34.07 40 27.14 40 20 40 C20 47.26 20 54.52 20 62 C13.73 62 7.46 62 1 62 C1 54.74 1 47.48 1 40 C-5.93 40 -12.86 40 -20 40 C-20 34.06 -20 28.12 -20 22 C-13.4 22 -6.8 22 0 22 C0 14.74 0 7.48 0 0 Z " fill="#243C67" transform="translate(22,1)"/>
<path d="M0 0 C0.70744354 0.00141495 1.41488708 0.0028299 2.14376831 0.00428772 C4.40578419 0.00989025 6.66770148 0.02244307 8.9296875 0.03515625 C10.46223815 0.04017093 11.99479036 0.04473389 13.52734375 0.04882812 C17.28649638 0.05986048 21.04557522 0.07712673 24.8046875 0.09765625 C24.8046875 0.42765625 24.8046875 0.75765625 24.8046875 1.09765625 C17.8746875 1.09765625 10.9446875 1.09765625 3.8046875 1.09765625 C3.8046875 8.35765625 3.8046875 15.61765625 3.8046875 23.09765625 C-2.7953125 23.09765625 -9.3953125 23.09765625 -16.1953125 23.09765625 C-16.1953125 29.03765625 -16.1953125 34.97765625 -16.1953125 41.09765625 C-9.2653125 41.09765625 -2.3353125 41.09765625 4.8046875 41.09765625 C4.8046875 48.35765625 4.8046875 55.61765625 4.8046875 63.09765625 C4.4746875 63.09765625 4.1446875 63.09765625 3.8046875 63.09765625 C3.8046875 56.16765625 3.8046875 49.23765625 3.8046875 42.09765625 C-3.1253125 42.09765625 -10.0553125 42.09765625 -17.1953125 42.09765625 C-17.430813 37.79209278 -17.65296492 33.48989289 -17.84228516 29.18261719 C-17.9104868 27.71967567 -17.98622638 26.2570644 -18.06982422 24.79492188 C-18.18909969 22.6853268 -18.28065243 20.5760053 -18.3671875 18.46484375 C-18.4300293 17.19753418 -18.49287109 15.93022461 -18.55761719 14.62451172 C-18.00621413 9.25687794 -15.53792472 6.28043368 -11.5703125 2.78515625 C-7.60426643 -0.03282386 -4.73222986 -0.03541623 0 0 Z " fill="#F3F4F6" transform="translate(18.1953125,-0.09765625)"/>
</svg>
